<?xml version="1.0" encoding="utf-8"?>
<!-- Generator: Adobe Illustrator 24.2.1, SVG Export Plug-In . SVG Version: 6.00 Build 0)  -->
<svg version="1.1" id="Layer_1" xmlns="http://www.w3.org/2000/svg" xmlns:xlink="http://www.w3.org/1999/xlink" x="0px" y="0px"
	 viewBox="0 0 1920 2160" style="enable-background:new 0 0 1920 2160;" xml:space="preserve">
<style type="text/css">
	.st0{fill:url(#Ellipse_325_1_);}
	.st1{fill:#FFFFFF;}
	.st2{font-family:'AcierBATText-Solid';}
	.st3{font-size:40px;}
	.st4{fill:#20272E;}
</style>
<linearGradient id="Ellipse_325_1_" gradientUnits="userSpaceOnUse" x1="1.4044" y1="1600.4097" x2="1.2424" y2="1600.1467" gradientTransform="matrix(2344.2258 -1246.447 -1172.74 -2205.603 1874604.75 3532211.75)">
	<stop  offset="0" style="stop-color:#FFFFFF"/>
	<stop  offset="0.594" style="stop-color:#B5E5F7"/>
	<stop  offset="1" style="stop-color:#B5E5F7"/>
</linearGradient>
<path id="Ellipse_325" class="st0" d="M449-541.7c647.3-344.2,1434.6-129.5,1758.5,479.6s61.6,1381.8-585.7,1726
	S187.1,1793.4-136.7,1184.3S-198.3-197.5,449-541.7z"/>
<text transform="matrix(1 0 0 1 -53.3492 372.1176)" class="st1 st2 st3">1011100100101001000101110110111001011100100101001000101110110111001001010010001011101101110010010100100010111011</text>
<text transform="matrix(1 0 0 1 -53.3492 407.1176)" class="st1 st2 st3">0111001001010010001011101101110010010100100010111011011100100101001000101110110111001001010010001011101v1011100</text>
<text transform="matrix(1 0 0 1 -53.3492 442.1176)" class="st1 st2 st3">100101001000101110110111001001010010001011101101110010010100100010111011011100100101001000101110110111001001010</text>
<text transform="matrix(1 0 0 1 -53.3492 477.1176)" class="st1 st2 st3">01000101110110111001001010010001011101101110010010100100010111011011100100101001000101110110111001001010010001</text>
<text transform="matrix(1 0 0 1 -53.3492 512.1176)" class="st1 st2 st3">0111011001010010001011101101110010010100100010111011011100101110010010100100010111011011100100101001000101110110</text>
<text transform="matrix(1 0 0 1 -53.3492 547.1176)" class="st1 st2 st3">111001001010010001011101101110010010100100010111011011100100101001000101110110111001001010010001011101101110010</text>
<text transform="matrix(1 0 0 1 -53.3492 582.1176)" class="st1 st2 st3">01010010001011101v10111001001010010001011101101110010010100100010111011011100100101001000101110110111001001010</text>
<text transform="matrix(1 0 0 1 -53.3492 617.1176)" class="st1 st2 st3">01000101110110111001001010010001011101101110010010100100010111011011100100101001000101110110111001001010010001</text>
<text transform="matrix(1 0 0 1 -53.3492 652.1176)" class="st1 st2 st3">0111011011100100101001000101110110010100100010111011011100100101001000101110110111001011100100101001000101110110</text>
<text transform="matrix(1 0 0 1 -53.3492 687.1176)" class="st1 st2 st3">111001001010010001011101101110010010100100010111011011100100101001000101110110111001001010010001011101101110010</text>
<text transform="matrix(1 0 0 1 -53.3492 722.1176)" class="st1 st2 st3">01010010001011101101110010010100100010111010101110010010100100010111011011100100101001000101110110111001001010</text>
<text transform="matrix(1 0 0 1 -53.3492 757.1176)" class="st1 st2 st3">01000101110110111001001010010001011101101110010010100100010111011011100100101001000101110110111001001010010001</text>
<text transform="matrix(1 0 0 1 -53.3492 792.1176)" class="st1 st2 st3">0111011011100100101001000101110110111001001010010001011101100101001000101110110111001001010010001011101101110010</text>
<text transform="matrix(1 0 0 1 -53.3492 827.1176)" class="st1 st2 st3">111001001010010001011101101110010010100100010111011011100100101001000101110110111001001010010001011101101110010</text>
<text transform="matrix(1 0 0 1 -53.3492 862.1176)" class="st1 st2 st3">010100100010111011011100100101001000101110110111001001010010001011101v1011100100101001000101110110111001001010</text>
<text transform="matrix(1 0 0 1 -53.3492 897.1176)" class="st1 st2 st3">01000101110110111001001010010001011101101110010010100100010111011011100100101001000101110110111001001010010001</text>
<text transform="matrix(1 0 0 1 -53.3492 932.1176)" class="st1 st2 st3">0111011011100100101001000101110110111001001010010001011101101110010010100100010111011001010010001011101101110010</text>
<text transform="matrix(1 0 0 1 -53.3492 967.1176)" class="st1 st2 st3">010100100010111011011100101110010010100100010111011011100100101001000101110110111001001010010001011101101110010</text>
<text transform="matrix(1 0 0 1 -53.3492 1002.1176)" class="st1 st2 st3">01010010001011101101110010010100100010111011011100100101001000101110110111001001010010001011101v10111001001010</text>
<text transform="matrix(1 0 0 1 -53.3492 1037.1176)" class="st1 st2 st3">01000101110110111001001010010001011101101110010010100100010111011011100100101001000101110110111001001010010001</text>
<text transform="matrix(1 0 0 1 -53.3492 1072.1176)" class="st1 st2 st3">0111011011100100101001000101110110111001001010010001011101101110010010100100010111011011100100101001000101110110</text>
<text transform="matrix(1 0 0 1 -53.3492 1107.1176)" class="st1 st2 st3">010100100010111011011100100101001000101110110111001011100100101001000101110110111001001010010001011101101110010</text>
<text transform="matrix(1 0 0 1 -53.3492 1142.1176)" class="st1 st2 st3">010100100010111011011100100101001000101110110111001001010010001011101101110010010100100010111011011100100101001</text>
<text transform="matrix(1 0 0 1 -53.3492 1177.1176)" class="st1 st2 st3">0001011101v101110010010100100010111011011100100101001000101110110111001001010010001011101101110010010100100010</text>
<text transform="matrix(1 0 0 1 -53.3492 1212.1176)" class="st1 st2 st3">11101101110010010100100010111011011100100101001000101110110111001001010010001011101101110010010100100010111011011</text>
<text transform="matrix(1 0 0 1 -53.3492 1247.1176)" class="st1 st2 st3">100100101001000101110110010100100010111011011100100101001000101110110111001011100100101001000101110110111001001</text>
<text transform="matrix(1 0 0 1 -53.3492 1282.1176)" class="st1 st2 st3">01001000101110110111001001010010001011101101110010010100100010111011011100100101001000101110110111001001010010</text>
<rect id="tree_base" x="-52.9" y="898.3" class="st4" width="2006" height="1277"/>
<g id="bell_tower" transform="translate(746.154 1283.63)">
	<path id="Polygon_1" class="st4" d="M978.9-839.3l45,175h-90L978.9-839.3z"/>
	<rect id="Rectangle_4" x="923.9" y="-664.3" class="st4" width="109" height="19"/>
	<rect id="Rectangle_10" x="923.9" y="-535.3" class="st4" width="109" height="18"/>
	<rect id="Rectangle_11" x="912.9" y="-517.3" class="st4" width="131" height="156"/>
	<rect id="Rectangle_5" x="931.9" y="-645.3" class="st4" width="16" height="110"/>
	<rect id="Rectangle_6" x="950.9" y="-645.3" class="st4" width="17" height="110"/>
	<rect id="Rectangle_7" x="969.9" y="-645.3" class="st4" width="17" height="110"/>
	<rect id="Rectangle_8" x="988.9" y="-645.3" class="st4" width="16" height="110"/>
	<rect id="Rectangle_9" x="1007.9" y="-645.3" class="st4" width="16" height="110"/>
	<path id="Polygon_2" class="st1" d="M973.8-470.2c1.2-3.1,4.7-4.6,7.8-3.4c1.6,0.6,2.8,1.8,3.4,3.4l8.7,22.4
		c1.2,3.1-0.3,6.6-3.4,7.8c-0.7,0.3-1.4,0.4-2.2,0.4h-17.5c-3.3,0-6-2.7-6-6c0-0.7,0.1-1.5,0.4-2.2L973.8-470.2z"/>
	<rect id="Rectangle_12" x="938.9" y="-462.3" class="st1" width="9" height="22"/>
	<rect id="Rectangle_40" x="1011.8" y="-462.6" class="st1" width="9" height="22"/>
	<ellipse id="Ellipse_3" class="st4" cx="1038.4" cy="-534.8" rx="4.5" ry="8.5"/>
	<ellipse id="Ellipse_333" class="st4" cx="918.4" cy="-534.8" rx="4.5" ry="8.5"/>
	<ellipse id="Ellipse_4" class="st4" cx="1038.4" cy="-544.8" rx="2.5" ry="3.5"/>
	<ellipse id="Ellipse_332" class="st4" cx="918.4" cy="-544.8" rx="2.5" ry="3.5"/>
	<path id="Polygon_4" class="st4" d="M1038.4-532.3l5.5,15h-11L1038.4-532.3z"/>
	<path id="Polygon_5" class="st4" d="M918.4-532.3l5.5,15h-11L918.4-532.3z"/>
</g>
<g id="trees" transform="translate(731.154 1072.222)">
	<circle id="Ellipse_6" class="st4" cx="-556.6" cy="-156.4" r="26.5"/>
	<circle id="Ellipse_94" class="st4" cx="-107.6" cy="-144.4" r="26.5"/>
	<circle id="Ellipse_166" class="st4" cx="322.4" cy="-150.4" r="26.5"/>
	<circle id="Ellipse_36" class="st4" cx="-475.6" cy="-145.4" r="26.5"/>
	<circle id="Ellipse_95" class="st4" cx="-17.6" cy="-165.4" r="26.5"/>
	<circle id="Ellipse_167" class="st4" cx="410.4" cy="-165.4" r="26.5"/>
	<circle id="Ellipse_243" class="st4" cx="644.4" cy="-135.4" r="26.5"/>
	<circle id="Ellipse_280" class="st4" cx="1056.4" cy="-153.4" r="26.5"/>
	<circle id="Ellipse_54" class="st4" cx="-363.6" cy="-146.4" r="26.5"/>
	<circle id="Ellipse_130" class="st4" cx="94.4" cy="-166.4" r="26.5"/>
	<circle id="Ellipse_202" class="st4" cx="522.4" cy="-166.4" r="26.5"/>
	<circle id="Ellipse_244" class="st4" cx="756.4" cy="-136.4" r="26.5"/>
	<circle id="Ellipse_281" class="st4" cx="1168.4" cy="-154.4" r="26.5"/>
	<circle id="Ellipse_72" class="st4" cx="-288.6" cy="-131.4" r="44.5"/>
	<circle id="Ellipse_142" class="st4" cx="224.4" cy="-123.4" r="44.5"/>
	<circle id="Ellipse_214" class="st4" cx="652.4" cy="-123.4" r="44.5"/>
	<circle id="Ellipse_253" class="st4" cx="886.4" cy="-93.4" r="44.5"/>
	<circle id="Ellipse_7" class="st4" cx="-598.6" cy="-156.4" r="26.5"/>
	<circle id="Ellipse_96" class="st4" cx="-149.6" cy="-144.4" r="26.5"/>
	<circle id="Ellipse_168" class="st4" cx="280.4" cy="-150.4" r="26.5"/>
	<circle id="Ellipse_37" class="st4" cx="-517.6" cy="-145.4" r="26.5"/>
	<circle id="Ellipse_97" class="st4" cx="-59.6" cy="-165.4" r="26.5"/>
	<circle id="Ellipse_169" class="st4" cx="376.4" cy="-147.4" r="26.5"/>
	<circle id="Ellipse_55" class="st4" cx="-405.6" cy="-146.4" r="26.5"/>
	<circle id="Ellipse_98" class="st4" cx="52.4" cy="-166.4" r="26.5"/>
	<circle id="Ellipse_170" class="st4" cx="480.4" cy="-166.4" r="26.5"/>
	<circle id="Ellipse_245" class="st4" cx="714.4" cy="-136.4" r="26.5"/>
	<circle id="Ellipse_282" class="st4" cx="1126.4" cy="-154.4" r="26.5"/>
	<ellipse id="Ellipse_73" class="st4" cx="-304.1" cy="-123.4" rx="45" ry="44.5"/>
	<ellipse id="Ellipse_138" class="st4" cx="153.9" cy="-123.4" rx="45" ry="44.5"/>
	<ellipse id="Ellipse_210" class="st4" cx="581.9" cy="-123.4" rx="45" ry="44.5"/>
	<ellipse id="Ellipse_254" class="st4" cx="815.9" cy="-93.4" rx="45" ry="44.5"/>
	<ellipse id="Ellipse_291" class="st4" cx="1227.9" cy="-111.4" rx="45" ry="44.5"/>
	<circle id="Ellipse_8" class="st4" cx="-598.6" cy="-198.4" r="26.5"/>
	<circle id="Ellipse_298" class="st4" cx="-747.6" cy="-174.4" r="26.5"/>
	<circle id="Ellipse_79" class="st4" cx="-149.6" cy="-186.4" r="26.5"/>
	<circle id="Ellipse_151" class="st4" cx="280.4" cy="-192.4" r="26.5"/>
	<circle id="Ellipse_27" class="st4" cx="-517.6" cy="-187.4" r="26.5"/>
	<circle id="Ellipse_308" class="st4" cx="-666.6" cy="-163.4" r="26.5"/>
	<circle id="Ellipse_99" class="st4" cx="-59.6" cy="-207.4" r="26.5"/>
	<circle id="Ellipse_171" class="st4" cx="376.4" cy="-189.4" r="26.5"/>
	<circle id="Ellipse_45" class="st4" cx="-405.6" cy="-188.4" r="26.5"/>
	<circle id="Ellipse_100" class="st4" cx="52.4" cy="-208.4" r="26.5"/>
	<circle id="Ellipse_172" class="st4" cx="480.4" cy="-208.4" r="26.5"/>
	<circle id="Ellipse_225" class="st4" cx="714.4" cy="-178.4" r="26.5"/>
	<circle id="Ellipse_262" class="st4" cx="1126.4" cy="-196.4" r="26.5"/>
	<ellipse id="Ellipse_63" class="st4" cx="-304.1" cy="-174.4" rx="45" ry="44.5"/>
	<ellipse id="Ellipse_139" class="st4" cx="153.9" cy="-194.4" rx="45" ry="44.5"/>
	<ellipse id="Ellipse_211" class="st4" cx="581.9" cy="-194.4" rx="45" ry="44.5"/>
	<ellipse id="Ellipse_226" class="st4" cx="815.9" cy="-164.4" rx="45" ry="44.5"/>
	<ellipse id="Ellipse_263" class="st4" cx="1227.9" cy="-182.4" rx="45" ry="44.5"/>
	<circle id="Ellipse_9" class="st4" cx="-641.6" cy="-179.4" r="26.5"/>
	<circle id="Ellipse_86" class="st4" cx="-192.6" cy="-147.4" r="26.5"/>
	<circle id="Ellipse_158" class="st4" cx="237.4" cy="-173.4" r="26.5"/>
	<circle id="Ellipse_28" class="st4" cx="-545.6" cy="-176.4" r="26.5"/>
	<circle id="Ellipse_315" class="st4" cx="-694.6" cy="-152.4" r="26.5"/>
	<circle id="Ellipse_101" class="st4" cx="-96.6" cy="-164.4" r="26.5"/>
	<circle id="Ellipse_173" class="st4" cx="333.4" cy="-170.4" r="26.5"/>
	<circle id="Ellipse_46" class="st4" cx="-448.6" cy="-169.4" r="26.5"/>
	<circle id="Ellipse_322" class="st4" cx="-597.6" cy="-145.4" r="26.5"/>
	<circle id="Ellipse_102" class="st4" cx="9.4" cy="-189.4" r="26.5"/>
	<circle id="Ellipse_174" class="st4" cx="437.4" cy="-189.4" r="26.5"/>
	<circle id="Ellipse_227" class="st4" cx="671.4" cy="-159.4" r="26.5"/>
	<circle id="Ellipse_264" class="st4" cx="1083.4" cy="-177.4" r="26.5"/>
	<circle id="Ellipse_64" class="st4" cx="-376.6" cy="-142.4" r="44.5"/>
	<circle id="Ellipse_124" class="st4" cx="81.4" cy="-162.4" r="44.5"/>
	<circle id="Ellipse_196" class="st4" cx="509.4" cy="-162.4" r="44.5"/>
	<circle id="Ellipse_246" class="st4" cx="743.4" cy="-132.4" r="44.5"/>
	<circle id="Ellipse_283" class="st4" cx="1155.4" cy="-150.4" r="44.5"/>
	<circle id="Ellipse_10" class="st4" cx="-565.1" cy="-205.9" r="18"/>
	<circle id="Ellipse_301" class="st4" cx="-714.1" cy="-181.9" r="18"/>
	<circle id="Ellipse_80" class="st4" cx="-116.1" cy="-193.9" r="18"/>
	<circle id="Ellipse_152" class="st4" cx="313.9" cy="-199.9" r="18"/>
	<circle id="Ellipse_29" class="st4" cx="-484.1" cy="-194.9" r="18"/>
	<circle id="Ellipse_309" class="st4" cx="-633.1" cy="-170.9" r="18"/>
	<circle id="Ellipse_103" class="st4" cx="-26.1" cy="-214.9" r="18"/>
	<circle id="Ellipse_175" class="st4" cx="409.9" cy="-196.9" r="18"/>
	<circle id="Ellipse_47" class="st4" cx="-372.1" cy="-195.9" r="18"/>
	<circle id="Ellipse_131" class="st4" cx="85.9" cy="-215.9" r="18"/>
	<circle id="Ellipse_203" class="st4" cx="513.9" cy="-215.9" r="18"/>
	<circle id="Ellipse_228" class="st4" cx="747.9" cy="-185.9" r="18"/>
	<circle id="Ellipse_265" class="st4" cx="1159.9" cy="-203.9" r="18"/>
	<ellipse id="Ellipse_65" class="st4" cx="-247.6" cy="-186.9" rx="30.5" ry="30"/>
	<ellipse id="Ellipse_143" class="st4" cx="210.4" cy="-206.9" rx="30.5" ry="30"/>
	<ellipse id="Ellipse_215" class="st4" cx="638.4" cy="-206.9" rx="30.5" ry="30"/>
	<ellipse id="Ellipse_229" class="st4" cx="872.4" cy="-176.9" rx="30.5" ry="30"/>
	<circle id="Ellipse_11" class="st4" cx="-530.1" cy="-179.9" r="18"/>
	<circle id="Ellipse_318" class="st4" cx="-679.1" cy="-155.9" r="18"/>
	<circle id="Ellipse_104" class="st4" cx="-87.1" cy="-191.9" r="18"/>
	<circle id="Ellipse_176" class="st4" cx="348.9" cy="-173.9" r="18"/>
	<circle id="Ellipse_38" class="st4" cx="-449.1" cy="-168.9" r="18"/>
	<circle id="Ellipse_105" class="st4" cx="8.9" cy="-188.9" r="18"/>
	<circle id="Ellipse_177" class="st4" cx="436.9" cy="-188.9" r="18"/>
	<circle id="Ellipse_247" class="st4" cx="670.9" cy="-158.9" r="18"/>
	<circle id="Ellipse_284" class="st4" cx="1082.9" cy="-176.9" r="18"/>
	<circle id="Ellipse_56" class="st4" cx="-443.1" cy="-180.9" r="18"/>
	<circle id="Ellipse_106" class="st4" cx="14.9" cy="-200.9" r="18"/>
	<circle id="Ellipse_178" class="st4" cx="442.9" cy="-200.9" r="18"/>
	<circle id="Ellipse_230" class="st4" cx="676.9" cy="-170.9" r="18"/>
	<circle id="Ellipse_267" class="st4" cx="1088.9" cy="-188.9" r="18"/>
	<ellipse id="Ellipse_74" class="st4" cx="-182.6" cy="-118.9" rx="30.5" ry="30"/>
	<ellipse id="Ellipse_148" class="st4" cx="269.4" cy="-162.9" rx="30.5" ry="30"/>
	<ellipse id="Ellipse_220" class="st4" cx="697.4" cy="-162.9" rx="30.5" ry="30"/>
	<ellipse id="Ellipse_255" class="st4" cx="916.4" cy="-121.9" rx="30.5" ry="30"/>
	<circle id="Ellipse_12" class="st4" cx="-623.1" cy="-200.9" r="18"/>
	<circle id="Ellipse_81" class="st4" cx="-174.1" cy="-188.9" r="18"/>
	<circle id="Ellipse_153" class="st4" cx="255.9" cy="-194.9" r="18"/>
	<circle id="Ellipse_24" class="st4" cx="-527.1" cy="-197.9" r="18"/>
	<circle id="Ellipse_310" class="st4" cx="-676.1" cy="-173.9" r="18"/>
	<circle id="Ellipse_87" class="st4" cx="-84.1" cy="-209.9" r="18"/>
	<circle id="Ellipse_159" class="st4" cx="351.9" cy="-191.9" r="18"/>
	<circle id="Ellipse_42" class="st4" cx="-430.1" cy="-190.9" r="18"/>
	<circle id="Ellipse_107" class="st4" cx="27.9" cy="-210.9" r="18"/>
	<circle id="Ellipse_179" class="st4" cx="455.9" cy="-210.9" r="18"/>
	<circle id="Ellipse_231" class="st4" cx="689.9" cy="-180.9" r="18"/>
	<circle id="Ellipse_268" class="st4" cx="1101.9" cy="-198.9" r="18"/>
	<circle id="Ellipse_60" class="st4" cx="-345.6" cy="-178.4" r="30.5"/>
	<circle id="Ellipse_134" class="st4" cx="112.4" cy="-198.4" r="30.5"/>
	<circle id="Ellipse_206" class="st4" cx="540.4" cy="-198.4" r="30.5"/>
	<circle id="Ellipse_232" class="st4" cx="774.4" cy="-168.4" r="30.5"/>
	<circle id="Ellipse_269" class="st4" cx="1186.4" cy="-186.4" r="30.5"/>
	<circle id="Ellipse_13" class="st4" cx="-633.1" cy="-152.9" r="18"/>
	<circle id="Ellipse_108" class="st4" cx="-184.1" cy="-140.9" r="18"/>
	<circle id="Ellipse_180" class="st4" cx="245.9" cy="-146.9" r="18"/>
	<circle id="Ellipse_39" class="st4" cx="-537.1" cy="-169.9" r="18"/>
	<circle id="Ellipse_109" class="st4" cx="-94.1" cy="-161.9" r="18"/>
	<circle id="Ellipse_181" class="st4" cx="341.9" cy="-143.9" r="18"/>
	<circle id="Ellipse_57" class="st4" cx="-440.1" cy="-162.9" r="18"/>
	<circle id="Ellipse_110" class="st4" cx="17.9" cy="-162.9" r="18"/>
	<circle id="Ellipse_182" class="st4" cx="445.9" cy="-162.9" r="18"/>
	<circle id="Ellipse_256" class="st4" cx="679.9" cy="-132.9" r="18"/>
	<circle id="Ellipse_293" class="st4" cx="1091.9" cy="-150.9" r="18"/>
	<ellipse id="Ellipse_75" class="st4" cx="-362.1" cy="-117.4" rx="30" ry="30.5"/>
	<ellipse id="Ellipse_128" class="st4" cx="95.9" cy="-117.4" rx="30" ry="30.5"/>
	<ellipse id="Ellipse_200" class="st4" cx="523.9" cy="-117.4" rx="30" ry="30.5"/>
	<ellipse id="Ellipse_258" class="st4" cx="757.9" cy="-87.4" rx="30" ry="30.5"/>
	<ellipse id="Ellipse_295" class="st4" cx="1169.9" cy="-105.4" rx="30" ry="30.5"/>
	<circle id="Ellipse_14" class="st4" cx="-556.1" cy="-187.9" r="18"/>
	<circle id="Ellipse_316" class="st4" cx="-705.1" cy="-163.9" r="18"/>
	<circle id="Ellipse_88" class="st4" cx="-107.1" cy="-175.9" r="18"/>
	<circle id="Ellipse_160" class="st4" cx="322.9" cy="-181.9" r="18"/>
	<circle id="Ellipse_34" class="st4" cx="-475.1" cy="-176.9" r="18"/>
	<circle id="Ellipse_320" class="st4" cx="-624.1" cy="-152.9" r="18"/>
	<circle id="Ellipse_111" class="st4" cx="-17.1" cy="-196.9" r="18"/>
	<circle id="Ellipse_183" class="st4" cx="418.9" cy="-178.9" r="18"/>
	<circle id="Ellipse_52" class="st4" cx="-363.1" cy="-177.9" r="18"/>
	<circle id="Ellipse_132" class="st4" cx="94.9" cy="-197.9" r="18"/>
	<circle id="Ellipse_204" class="st4" cx="522.9" cy="-197.9" r="18"/>
	<circle id="Ellipse_233" class="st4" cx="756.9" cy="-167.9" r="18"/>
	<circle id="Ellipse_270" class="st4" cx="1168.9" cy="-185.9" r="18"/>
	<circle id="Ellipse_70" class="st4" cx="-232.6" cy="-156.4" r="30.5"/>
	<circle id="Ellipse_145" class="st4" cx="225.4" cy="-176.4" r="30.5"/>
	<circle id="Ellipse_217" class="st4" cx="653.4" cy="-176.4" r="30.5"/>
	<circle id="Ellipse_248" class="st4" cx="887.4" cy="-146.4" r="30.5"/>
	<circle id="Ellipse_15" class="st4" cx="-585.1" cy="-224.9" r="9"/>
	<circle id="Ellipse_82" class="st4" cx="-136.1" cy="-212.9" r="9"/>
	<circle id="Ellipse_154" class="st4" cx="293.9" cy="-218.9" r="9"/>
	<circle id="Ellipse_30" class="st4" cx="-504.1" cy="-213.9" r="9"/>
	<circle id="Ellipse_303" class="st4" cx="-653.1" cy="-189.9" r="9"/>
	<circle id="Ellipse_112" class="st4" cx="-46.1" cy="-233.9" r="9"/>
	<circle id="Ellipse_184" class="st4" cx="389.9" cy="-215.9" r="9"/>
	<circle id="Ellipse_48" class="st4" cx="-392.1" cy="-214.9" r="9"/>
	<circle id="Ellipse_127" class="st4" cx="65.9" cy="-234.9" r="9"/>
	<circle id="Ellipse_199" class="st4" cx="493.9" cy="-234.9" r="9"/>
	<circle id="Ellipse_222" class="st4" cx="727.9" cy="-204.9" r="9"/>
	<circle id="Ellipse_259" class="st4" cx="1139.9" cy="-222.9" r="9"/>
	<circle id="Ellipse_66" class="st4" cx="-281.1" cy="-218.9" r="15"/>
	<circle id="Ellipse_141" class="st4" cx="176.9" cy="-238.9" r="15"/>
	<circle id="Ellipse_213" class="st4" cx="604.9" cy="-238.9" r="15"/>
	<circle id="Ellipse_234" class="st4" cx="838.9" cy="-208.9" r="15"/>
	<circle id="Ellipse_16" class="st4" cx="-607.1" cy="-221.9" r="9"/>
	<circle id="Ellipse_78" class="st4" cx="-158.1" cy="-209.9" r="9"/>
	<circle id="Ellipse_150" class="st4" cx="271.9" cy="-215.9" r="9"/>
	<circle id="Ellipse_31" class="st4" cx="-511.1" cy="-218.9" r="9"/>
	<circle id="Ellipse_300" class="st4" cx="-660.1" cy="-194.9" r="9"/>
	<circle id="Ellipse_113" class="st4" cx="-68.1" cy="-230.9" r="9"/>
	<circle id="Ellipse_185" class="st4" cx="367.9" cy="-212.9" r="9"/>
	<circle id="Ellipse_49" class="st4" cx="-414.1" cy="-211.9" r="9"/>
	<circle id="Ellipse_125" class="st4" cx="43.9" cy="-231.9" r="9"/>
	<circle id="Ellipse_197" class="st4" cx="471.9" cy="-231.9" r="9"/>
	<circle id="Ellipse_235" class="st4" cx="705.9" cy="-201.9" r="9"/>
	<circle id="Ellipse_272" class="st4" cx="1117.9" cy="-219.9" r="9"/>
	<circle id="Ellipse_67" class="st4" cx="-318.1" cy="-213.9" r="15"/>
	<circle id="Ellipse_140" class="st4" cx="139.9" cy="-233.9" r="15"/>
	<circle id="Ellipse_212" class="st4" cx="567.9" cy="-233.9" r="15"/>
	<circle id="Ellipse_223" class="st4" cx="801.9" cy="-203.9" r="15"/>
	<circle id="Ellipse_17" class="st4" cx="-654.1" cy="-200.9" r="9"/>
	<circle id="Ellipse_89" class="st4" cx="-211.1" cy="-192.9" r="9"/>
	<circle id="Ellipse_161" class="st4" cx="224.9" cy="-194.9" r="9"/>
	<circle id="Ellipse_32" class="st4" cx="-558.1" cy="-197.9" r="9"/>
	<circle id="Ellipse_317" class="st4" cx="-707.1" cy="-173.9" r="9"/>
	<circle id="Ellipse_90" class="st4" cx="-109.1" cy="-185.9" r="9"/>
	<circle id="Ellipse_162" class="st4" cx="320.9" cy="-191.9" r="9"/>
	<circle id="Ellipse_50" class="st4" cx="-461.1" cy="-190.9" r="9"/>
	<circle id="Ellipse_114" class="st4" cx="-3.1" cy="-210.9" r="9"/>
	<circle id="Ellipse_186" class="st4" cx="432.9" cy="-192.9" r="9"/>
	<circle id="Ellipse_68" class="st4" cx="-397.6" cy="-178.4" r="15.5"/>
	<circle id="Ellipse_126" class="st4" cx="60.4" cy="-198.4" r="15.5"/>
	<circle id="Ellipse_198" class="st4" cx="488.4" cy="-198.4" r="15.5"/>
	<circle id="Ellipse_236" class="st4" cx="722.4" cy="-168.4" r="15.5"/>
	<circle id="Ellipse_273" class="st4" cx="1134.4" cy="-186.4" r="15.5"/>
	<circle id="Ellipse_18" class="st4" cx="-571.6" cy="-182.4" r="15.5"/>
	<circle id="Ellipse_319" class="st4" cx="-720.6" cy="-158.4" r="15.5"/>
	<circle id="Ellipse_115" class="st4" cx="-122.6" cy="-170.4" r="15.5"/>
	<circle id="Ellipse_187" class="st4" cx="307.4" cy="-176.4" r="15.5"/>
	<circle id="Ellipse_33" class="st4" cx="-490.6" cy="-171.4" r="15.5"/>
	<circle id="Ellipse_323" class="st4" cx="-639.6" cy="-167.4" r="15.5"/>
	<circle id="Ellipse_116" class="st4" cx="-32.6" cy="-191.4" r="15.5"/>
	<circle id="Ellipse_188" class="st4" cx="403.4" cy="-173.4" r="15.5"/>
	<circle id="Ellipse_51" class="st4" cx="-378.6" cy="-172.4" r="15.5"/>
	<circle id="Ellipse_129" class="st4" cx="79.4" cy="-192.4" r="15.5"/>
	<circle id="Ellipse_201" class="st4" cx="507.4" cy="-192.4" r="15.5"/>
	<circle id="Ellipse_249" class="st4" cx="741.4" cy="-162.4" r="15.5"/>
	<circle id="Ellipse_286" class="st4" cx="1153.4" cy="-180.4" r="15.5"/>
	<ellipse id="Ellipse_69" class="st4" cx="-258.6" cy="-146.9" rx="26.5" ry="26"/>
	<ellipse id="Ellipse_144" class="st4" cx="199.4" cy="-166.9" rx="26.5" ry="26"/>
	<ellipse id="Ellipse_216" class="st4" cx="627.4" cy="-166.9" rx="26.5" ry="26"/>
	<ellipse id="Ellipse_250" class="st4" cx="861.4" cy="-136.9" rx="26.5" ry="26"/>
	<circle id="Ellipse_19" class="st4" cx="-542.6" cy="-210.4" r="9.5"/>
	<circle id="Ellipse_304" class="st4" cx="-691.6" cy="-186.4" r="9.5"/>
	<circle id="Ellipse_91" class="st4" cx="-99.6" cy="-222.4" r="9.5"/>
	<circle id="Ellipse_163" class="st4" cx="336.4" cy="-204.4" r="9.5"/>
	<circle id="Ellipse_40" class="st4" cx="-461.6" cy="-199.4" r="9.5"/>
	<circle id="Ellipse_117" class="st4" cx="-3.6" cy="-219.4" r="9.5"/>
	<circle id="Ellipse_189" class="st4" cx="432.4" cy="-201.4" r="9.5"/>
	<circle id="Ellipse_58" class="st4" cx="-349.6" cy="-200.4" r="9.5"/>
	<circle id="Ellipse_137" class="st4" cx="108.4" cy="-220.4" r="9.5"/>
	<circle id="Ellipse_209" class="st4" cx="536.4" cy="-220.4" r="9.5"/>
	<circle id="Ellipse_237" class="st4" cx="770.4" cy="-190.4" r="9.5"/>
	<circle id="Ellipse_274" class="st4" cx="1182.4" cy="-208.4" r="9.5"/>
	<circle id="Ellipse_76" class="st4" cx="-199.1" cy="-175.9" r="16"/>
	<circle id="Ellipse_324" class="st4" cx="-212.1" cy="-190.9" r="16"/>
	<circle id="Ellipse_147" class="st4" cx="247.9" cy="-213.9" r="16"/>
	<circle id="Ellipse_219" class="st4" cx="675.9" cy="-213.9" r="16"/>
	<circle id="Ellipse_257" class="st4" cx="909.9" cy="-183.9" r="16"/>
	<circle id="Ellipse_20" class="st4" cx="-555.6" cy="-223.4" r="9.5"/>
	<circle id="Ellipse_297" class="st4" cx="-704.6" cy="-199.4" r="9.5"/>
	<circle id="Ellipse_83" class="st4" cx="-106.6" cy="-211.4" r="9.5"/>
	<circle id="Ellipse_155" class="st4" cx="323.4" cy="-217.4" r="9.5"/>
	<circle id="Ellipse_35" class="st4" cx="-474.6" cy="-212.4" r="9.5"/>
	<circle id="Ellipse_313" class="st4" cx="-623.6" cy="-188.4" r="9.5"/>
	<circle id="Ellipse_118" class="st4" cx="-16.6" cy="-232.4" r="9.5"/>
	<circle id="Ellipse_190" class="st4" cx="419.4" cy="-214.4" r="9.5"/>
	<circle id="Ellipse_53" class="st4" cx="-362.6" cy="-213.4" r="9.5"/>
	<circle id="Ellipse_135" class="st4" cx="95.4" cy="-233.4" r="9.5"/>
	<circle id="Ellipse_207" class="st4" cx="523.4" cy="-233.4" r="9.5"/>
	<circle id="Ellipse_224" class="st4" cx="757.4" cy="-203.4" r="9.5"/>
	<circle id="Ellipse_261" class="st4" cx="1169.4" cy="-221.4" r="9.5"/>
	<circle id="Ellipse_71" class="st4" cx="-231.1" cy="-215.9" r="16"/>
	<circle id="Ellipse_146" class="st4" cx="226.9" cy="-235.9" r="16"/>
	<circle id="Ellipse_218" class="st4" cx="654.9" cy="-235.9" r="16"/>
	<circle id="Ellipse_251" class="st4" cx="888.9" cy="-205.9" r="16"/>
	<circle id="Ellipse_21" class="st4" cx="-511.6" cy="-182.4" r="9.5"/>
	<circle id="Ellipse_321" class="st4" cx="-660.6" cy="-178.4" r="9.5"/>
	<circle id="Ellipse_119" class="st4" cx="-68.6" cy="-194.4" r="9.5"/>
	<circle id="Ellipse_191" class="st4" cx="367.4" cy="-176.4" r="9.5"/>
	<circle id="Ellipse_41" class="st4" cx="-430.6" cy="-171.4" r="9.5"/>
	<circle id="Ellipse_120" class="st4" cx="27.4" cy="-191.4" r="9.5"/>
	<circle id="Ellipse_192" class="st4" cx="455.4" cy="-191.4" r="9.5"/>
	<circle id="Ellipse_252" class="st4" cx="689.4" cy="-161.4" r="9.5"/>
	<circle id="Ellipse_289" class="st4" cx="1101.4" cy="-179.4" r="9.5"/>
	<circle id="Ellipse_59" class="st4" cx="-424.6" cy="-183.4" r="9.5"/>
	<circle id="Ellipse_121" class="st4" cx="33.4" cy="-203.4" r="9.5"/>
	<circle id="Ellipse_193" class="st4" cx="461.4" cy="-203.4" r="9.5"/>
	<circle id="Ellipse_238" class="st4" cx="695.4" cy="-173.4" r="9.5"/>
	<circle id="Ellipse_275" class="st4" cx="1107.4" cy="-191.4" r="9.5"/>
	<circle id="Ellipse_77" class="st4" cx="-140.1" cy="-104.9" r="16"/>
	<circle id="Ellipse_149" class="st4" cx="311.9" cy="-128.9" r="16"/>
	<circle id="Ellipse_221" class="st4" cx="747.9" cy="-110.9" r="16"/>
	<circle id="Ellipse_22" class="st4" cx="-625.6" cy="-209.4" r="9.5"/>
	<circle id="Ellipse_84" class="st4" cx="-176.6" cy="-197.4" r="9.5"/>
	<circle id="Ellipse_156" class="st4" cx="253.4" cy="-203.4" r="9.5"/>
	<circle id="Ellipse_25" class="st4" cx="-529.6" cy="-206.4" r="9.5"/>
	<circle id="Ellipse_311" class="st4" cx="-678.6" cy="-182.4" r="9.5"/>
	<circle id="Ellipse_92" class="st4" cx="-86.6" cy="-218.4" r="9.5"/>
	<circle id="Ellipse_164" class="st4" cx="349.4" cy="-200.4" r="9.5"/>
	<circle id="Ellipse_43" class="st4" cx="-432.6" cy="-199.4" r="9.5"/>
	<circle id="Ellipse_122" class="st4" cx="25.4" cy="-219.4" r="9.5"/>
	<circle id="Ellipse_194" class="st4" cx="453.4" cy="-219.4" r="9.5"/>
	<circle id="Ellipse_239" class="st4" cx="687.4" cy="-189.4" r="9.5"/>
	<circle id="Ellipse_276" class="st4" cx="1099.4" cy="-207.4" r="9.5"/>
	<circle id="Ellipse_61" class="st4" cx="-349.1" cy="-192.9" r="16"/>
	<circle id="Ellipse_136" class="st4" cx="108.9" cy="-212.9" r="16"/>
	<circle id="Ellipse_208" class="st4" cx="536.9" cy="-212.9" r="16"/>
	<circle id="Ellipse_240" class="st4" cx="770.9" cy="-182.9" r="16"/>
	<circle id="Ellipse_277" class="st4" cx="1182.9" cy="-200.9" r="16"/>
	<circle id="Ellipse_23" class="st4" cx="-632.6" cy="-212.4" r="9.5"/>
	<circle id="Ellipse_85" class="st4" cx="-199.1" cy="-199.9" r="28"/>
	<circle id="Ellipse_157" class="st4" cx="246.4" cy="-206.4" r="9.5"/>
	<circle id="Ellipse_26" class="st4" cx="-536.6" cy="-209.4" r="9.5"/>
	<circle id="Ellipse_307" class="st4" cx="-685.6" cy="-185.4" r="9.5"/>
	<circle id="Ellipse_93" class="st4" cx="-93.6" cy="-221.4" r="9.5"/>
	<circle id="Ellipse_165" class="st4" cx="342.4" cy="-203.4" r="9.5"/>
	<circle id="Ellipse_44" class="st4" cx="-439.6" cy="-202.4" r="9.5"/>
	<circle id="Ellipse_123" class="st4" cx="18.4" cy="-222.4" r="9.5"/>
	<circle id="Ellipse_195" class="st4" cx="446.4" cy="-222.4" r="9.5"/>
	<circle id="Ellipse_241" class="st4" cx="680.4" cy="-192.4" r="9.5"/>
	<circle id="Ellipse_278" class="st4" cx="1092.4" cy="-210.4" r="9.5"/>
	<circle id="Ellipse_62" class="st4" cx="-361.1" cy="-197.9" r="16"/>
	<circle id="Ellipse_133" class="st4" cx="96.9" cy="-217.9" r="16"/>
	<circle id="Ellipse_205" class="st4" cx="524.9" cy="-217.9" r="16"/>
	<circle id="Ellipse_242" class="st4" cx="758.9" cy="-187.9" r="16"/>
	<circle id="Ellipse_279" class="st4" cx="1170.9" cy="-205.9" r="16"/>
</g>
</svg>
