<?xml version="1.0" encoding="utf-8"?>
<!-- Generator: Adobe Illustrator 24.2.1, SVG Export Plug-In . SVG Version: 6.00 Build 0)  -->
<svg version="1.1" id="Layer_1" xmlns="http://www.w3.org/2000/svg" xmlns:xlink="http://www.w3.org/1999/xlink" x="0px" y="0px"
	 viewBox="0 0 1125 4988" style="enable-background:new 0 0 1125 4988;" xml:space="preserve">
<style type="text/css">
	.st0{fill:url(#Ellipse_325_1_);}
	.st1{fill:#FFFFFF;}
	.st2{font-family:'AcierBATText-Solid';}
	.st3{font-size:46.9087px;}
	.st4{fill:#20272E;}
</style>
<linearGradient id="Ellipse_325_1_" gradientUnits="userSpaceOnUse" x1="-396.7423" y1="1759.2539" x2="-396.9323" y2="1758.9456" gradientTransform="matrix(2344.2258 -1246.447 -1172.74 -2205.603 2993674.25 3386975.75)">
	<stop  offset="0" style="stop-color:#FFFFFF"/>
	<stop  offset="0.594" style="stop-color:#B5E5F7"/>
	<stop  offset="1" style="stop-color:#B5E5F7"/>
</linearGradient>
<path id="Ellipse_325" class="st0" d="M-210.9-52.3C548.2-456,1471.5-204.2,1851.3,510.1s72.2,1620.5-686.9,2024.1
	s-1682.4,151.8-2062.2-562.4S-970.1,351.3-210.9-52.3z"/>
<text transform="matrix(1 0 0 1 -817.0967 1298.2998)" class="st1 st2 st3">1011100100101001000101110110111001011100100101001000101110110111001001010010001011101101110010010100100010111011</text>
<text transform="matrix(1 0 0 1 -817.0967 1339.3447)" class="st1 st2 st3">0111001001010010001011101101110010010100100010111011011100100101001000101110110111001001010010001011101v1011100</text>
<text transform="matrix(1 0 0 1 -817.0967 1380.3896)" class="st1 st2 st3">100101001000101110110111001001010010001011101101110010010100100010111011011100100101001000101110110111001001010</text>
<text transform="matrix(1 0 0 1 -817.0967 1421.4346)" class="st1 st2 st3">01000101110110111001001010010001011101101110010010100100010111011011100100101001000101110110111001001010010001</text>
<text transform="matrix(1 0 0 1 -817.0967 1462.48)" class="st1 st2 st3">0111011001010010001011101101110010010100100010111011011100101110010010100100010111011011100100101001000101110110</text>
<text transform="matrix(1 0 0 1 -817.0967 1503.5254)" class="st1 st2 st3">111001001010010001011101101110010010100100010111011011100100101001000101110110111001001010010001011101101110010</text>
<text transform="matrix(1 0 0 1 -817.0967 1544.5703)" class="st1 st2 st3">01010010001011101v10111001001010010001011101101110010010100100010111011011100100101001000101110110111001001010</text>
<text transform="matrix(1 0 0 1 -817.0967 1585.6152)" class="st1 st2 st3">01000101110110111001001010010001011101101110010010100100010111011011100100101001000101110110111001001010010001</text>
<text transform="matrix(1 0 0 1 -817.0967 1626.6602)" class="st1 st2 st3">0111011011100100101001000101110110010100100010111011011100100101001000101110110111001011100100101001000101110110</text>
<text transform="matrix(1 0 0 1 -817.0967 1667.7051)" class="st1 st2 st3">111001001010010001011101101110010010100100010111011011100100101001000101110110111001001010010001011101101110010</text>
<text transform="matrix(1 0 0 1 -817.0967 1708.7505)" class="st1 st2 st3">01010010001011101101110010010100100010111010101110010010100100010111011011100100101001000101110110111001001010</text>
<text transform="matrix(1 0 0 1 -817.0967 1749.7959)" class="st1 st2 st3">01000101110110111001001010010001011101101110010010100100010111011011100100101001000101110110111001001010010001</text>
<text transform="matrix(1 0 0 1 -817.0967 1790.8408)" class="st1 st2 st3">0111011011100100101001000101110110111001001010010001011101100101001000101110110111001001010010001011101101110010</text>
<text transform="matrix(1 0 0 1 -817.0967 1831.8857)" class="st1 st2 st3">111001001010010001011101101110010010100100010111011011100100101001000101110110111001001010010001011101101110010</text>
<text transform="matrix(1 0 0 1 -817.0967 1872.9307)" class="st1 st2 st3">010100100010111011011100100101001000101110110111001001010010001011101v1011100100101001000101110110111001001010</text>
<text transform="matrix(1 0 0 1 -817.0967 1913.9756)" class="st1 st2 st3">01000101110110111001001010010001011101101110010010100100010111011011100100101001000101110110111001001010010001</text>
<text transform="matrix(1 0 0 1 -817.0967 1955.0215)" class="st1 st2 st3">0111011011100100101001000101110110111001001010010001011101101110010010100100010111011001010010001011101101110010</text>
<text transform="matrix(1 0 0 1 -817.0967 1996.0664)" class="st1 st2 st3">010100100010111011011100101110010010100100010111011011100100101001000101110110111001001010010001011101101110010</text>
<text transform="matrix(1 0 0 1 -817.0967 2037.1113)" class="st1 st2 st3">01010010001011101101110010010100100010111011011100100101001000101110110111001001010010001011101v10111001001010</text>
<text transform="matrix(1 0 0 1 -817.0967 2078.1562)" class="st1 st2 st3">01000101110110111001001010010001011101101110010010100100010111011011100100101001000101110110111001001010010001</text>
<text transform="matrix(1 0 0 1 -817.0967 2119.2012)" class="st1 st2 st3">0111011011100100101001000101110110111001001010010001011101101110010010100100010111011011100100101001000101110110</text>
<text transform="matrix(1 0 0 1 -817.0967 2160.2461)" class="st1 st2 st3">010100100010111011011100100101001000101110110111001011100100101001000101110110111001001010010001011101101110010</text>
<text transform="matrix(1 0 0 1 -817.0967 2201.291)" class="st1 st2 st3">010100100010111011011100100101001000101110110111001001010010001011101101110010010100100010111011011100100101001</text>
<text transform="matrix(1 0 0 1 -817.0967 2242.3369)" class="st1 st2 st3">0001011101v101110010010100100010111011011100100101001000101110110111001001010010001011101101110010010100100010</text>
<text transform="matrix(1 0 0 1 -817.0967 2283.3818)" class="st1 st2 st3">11101101110010010100100010111011011100100101001000101110110111001001010010001011101101110010010100100010111011011</text>
<text transform="matrix(1 0 0 1 -817.0967 2324.4268)" class="st1 st2 st3">100100101001000101110110010100100010111011011100100101001000101110110111001011100100101001000101110110111001001</text>
<text transform="matrix(1 0 0 1 -817.0967 2365.4717)" class="st1 st2 st3">01001000101110110111001001010010001011101101110010010100100010111011011100100101001000101110110111001001010010</text>
<g id="tree_base">
	
		<image style="overflow:visible;opacity:0.46;" width="1475" height="3750" xlink:href="AF93B7F9D6AE8206.png"  transform="matrix(1 0 0 1 -213 1484)">
	</image>
	<g>
		<rect x="-123" y="1586" class="st4" width="1295" height="3569"/>
	</g>
</g>
</svg>
