<?xml version="1.0" encoding="utf-8"?>
<!-- Generator: Adobe Illustrator 24.2.1, SVG Export Plug-In . SVG Version: 6.00 Build 0)  -->
<svg version="1.1" id="Layer_1" xmlns="http://www.w3.org/2000/svg" xmlns:xlink="http://www.w3.org/1999/xlink" x="0px" y="0px"
	 viewBox="0 0 660 3088" style="enable-background:new 0 0 660 3088;" xml:space="preserve">
<style type="text/css">
	.st0{fill:url(#Ellipse_325_1_);}
	.st1{fill:#FFFFFF;}
	.st2{font-family:'AcierBATText-Solid';}
	.st3{font-size:36.3178px;}
	.st4{fill:#20272E;}
</style>
<linearGradient id="Ellipse_325_1_" gradientUnits="userSpaceOnUse" x1="-628.7221" y1="1041.3754" x2="-628.8692" y2="1041.1366" gradientTransform="matrix(2344.2258 -1246.447 -1172.74 -2205.603 2695275.25 1513459)">
	<stop  offset="0" style="stop-color:#FFFFFF"/>
	<stop  offset="0.594" style="stop-color:#B5E5F7"/>
	<stop  offset="1" style="stop-color:#B5E5F7"/>
</linearGradient>
<path id="Ellipse_325" class="st0" d="M-383.6-763C204.1-1075.6,919-880.6,1213-327.6S1268.9,927,681.2,1239.5
	S-621.4,1357.1-915.4,804.1S-971.4-450.5-383.6-763z"/>
<text transform="matrix(1 0 0 1 -852.9033 282.6587)" class="st1 st2 st3">1011100100101001000101110110111001011100100101001000101110110111001001010010001011101101110010010100100010111011</text>
<text transform="matrix(1 0 0 1 -852.9033 314.437)" class="st1 st2 st3">0111001001010010001011101101110010010100100010111011011100100101001000101110110111001001010010001011101v1011100</text>
<text transform="matrix(1 0 0 1 -852.9033 346.2144)" class="st1 st2 st3">100101001000101110110111001001010010001011101101110010010100100010111011011100100101001000101110110111001001010</text>
<text transform="matrix(1 0 0 1 -852.9033 377.9917)" class="st1 st2 st3">01000101110110111001001010010001011101101110010010100100010111011011100100101001000101110110111001001010010001</text>
<text transform="matrix(1 0 0 1 -852.9033 409.77)" class="st1 st2 st3">0111011001010010001011101101110010010100100010111011011100101110010010100100010111011011100100101001000101110110</text>
<text transform="matrix(1 0 0 1 -852.9033 441.5488)" class="st1 st2 st3">111001001010010001011101101110010010100100010111011011100100101001000101110110111001001010010001011101101110010</text>
<text transform="matrix(1 0 0 1 -852.9033 473.3252)" class="st1 st2 st3">01010010001011101v10111001001010010001011101101110010010100100010111011011100100101001000101110110111001001010</text>
<text transform="matrix(1 0 0 1 -852.9033 505.1055)" class="st1 st2 st3">01000101110110111001001010010001011101101110010010100100010111011011100100101001000101110110111001001010010001</text>
<text transform="matrix(1 0 0 1 -852.9033 536.8818)" class="st1 st2 st3">0111011011100100101001000101110110010100100010111011011100100101001000101110110111001011100100101001000101110110</text>
<text transform="matrix(1 0 0 1 -852.9033 568.6611)" class="st1 st2 st3">111001001010010001011101101110010010100100010111011011100100101001000101110110111001001010010001011101101110010</text>
<text transform="matrix(1 0 0 1 -852.9033 600.4385)" class="st1 st2 st3">01010010001011101101110010010100100010111010101110010010100100010111011011100100101001000101110110111001001010</text>
<text transform="matrix(1 0 0 1 -852.9033 632.2178)" class="st1 st2 st3">01000101110110111001001010010001011101101110010010100100010111011011100100101001000101110110111001001010010001</text>
<text transform="matrix(1 0 0 1 -852.9033 663.9951)" class="st1 st2 st3">0111011011100100101001000101110110111001001010010001011101100101001000101110110111001001010010001011101101110010</text>
<text transform="matrix(1 0 0 1 -852.9033 695.7725)" class="st1 st2 st3">111001001010010001011101101110010010100100010111011011100100101001000101110110111001001010010001011101101110010</text>
<text transform="matrix(1 0 0 1 -852.9033 727.5508)" class="st1 st2 st3">010100100010111011011100100101001000101110110111001001010010001011101v1011100100101001000101110110111001001010</text>
<text transform="matrix(1 0 0 1 -852.9033 759.3281)" class="st1 st2 st3">01000101110110111001001010010001011101101110010010100100010111011011100100101001000101110110111001001010010001</text>
<text transform="matrix(1 0 0 1 -852.9033 791.1074)" class="st1 st2 st3">0111011011100100101001000101110110111001001010010001011101101110010010100100010111011001010010001011101101110010</text>
<text transform="matrix(1 0 0 1 -852.9033 822.8848)" class="st1 st2 st3">010100100010111011011100101110010010100100010111011011100100101001000101110110111001001010010001011101101110010</text>
<text transform="matrix(1 0 0 1 -852.9033 854.6641)" class="st1 st2 st3">01010010001011101101110010010100100010111011011100100101001000101110110111001001010010001011101v10111001001010</text>
<text transform="matrix(1 0 0 1 -852.9033 886.4404)" class="st1 st2 st3">01000101110110111001001010010001011101101110010010100100010111011011100100101001000101110110111001001010010001</text>
<text transform="matrix(1 0 0 1 -852.9033 918.2197)" class="st1 st2 st3">0111011011100100101001000101110110111001001010010001011101101110010010100100010111011011100100101001000101110110</text>
<text transform="matrix(1 0 0 1 -852.9033 949.9971)" class="st1 st2 st3">010100100010111011011100100101001000101110110111001011100100101001000101110110111001001010010001011101101110010</text>
<text transform="matrix(1 0 0 1 -852.9033 981.7744)" class="st1 st2 st3">010100100010111011011100100101001000101110110111001001010010001011101101110010010100100010111011011100100101001</text>
<text transform="matrix(1 0 0 1 -852.9033 1013.5547)" class="st1 st2 st3">0001011101v101110010010100100010111011011100100101001000101110110111001001010010001011101101110010010100100010</text>
<text transform="matrix(1 0 0 1 -852.9033 1045.332)" class="st1 st2 st3">11101101110010010100100010111011011100100101001000101110110111001001010010001011101101110010010100100010111011011</text>
<text transform="matrix(1 0 0 1 -852.9033 1077.1104)" class="st1 st2 st3">100100101001000101110110010100100010111011011100100101001000101110110111001011100100101001000101110110111001001</text>
<text transform="matrix(1 0 0 1 -852.9033 1108.8887)" class="st1 st2 st3">01001000101110110111001001010010001011101101110010010100100010111011011100100101001000101110110111001001010010</text>
<rect id="tree_base" x="-315.5" y="641.6" class="st4" width="1002.6" height="2571.2"/>
<g id="bell_tower" transform="translate(746.154 1283.63)">
	<path id="Polygon_1" class="st4" d="M-235.6-993.5l34.8,135.5h-69.7L-235.6-993.5z"/>
	<rect id="Rectangle_4" x="-278.2" y="-858" class="st4" width="84.4" height="14.7"/>
	<rect id="Rectangle_10" x="-278.2" y="-758.1" class="st4" width="84.4" height="13.9"/>
	<rect id="Rectangle_11" x="-286.7" y="-744.2" class="st4" width="101.4" height="120.8"/>
	<rect id="Rectangle_5" x="-272" y="-843.3" class="st4" width="12.4" height="85.2"/>
	<rect id="Rectangle_6" x="-257.3" y="-843.3" class="st4" width="13.2" height="85.2"/>
	<rect id="Rectangle_7" x="-242.6" y="-843.3" class="st4" width="13.2" height="85.2"/>
	<rect id="Rectangle_8" x="-227.9" y="-843.3" class="st4" width="12.4" height="85.2"/>
	<rect id="Rectangle_9" x="-213.2" y="-843.3" class="st4" width="12.4" height="85.2"/>
	<path id="Polygon_2" class="st1" d="M-239.5-707.8c0.9-2.4,3.6-3.6,6-2.6c1.2,0.5,2.2,1.4,2.6,2.6l6.8,17.4c0.9,2.4-0.3,5.1-2.6,6
		c-0.5,0.2-1.1,0.3-1.7,0.3H-242c-2.6,0-4.6-2.1-4.6-4.6c0-0.6,0.1-1.1,0.3-1.7L-239.5-707.8z"/>
	<rect id="Rectangle_12" x="-266.6" y="-701.6" class="st1" width="7" height="17"/>
	<rect id="Rectangle_40" x="-210.1" y="-701.9" class="st1" width="7" height="17"/>
	<ellipse id="Ellipse_3" class="st4" cx="-189.5" cy="-757.7" rx="3.5" ry="6.6"/>
	<ellipse id="Ellipse_333" class="st4" cx="-282.4" cy="-757.7" rx="3.5" ry="6.6"/>
	<ellipse id="Ellipse_4" class="st4" cx="-189.5" cy="-765.5" rx="1.9" ry="2.7"/>
	<ellipse id="Ellipse_332" class="st4" cx="-282.4" cy="-765.5" rx="1.9" ry="2.7"/>
	<path id="Polygon_4" class="st4" d="M-189.5-755.8l4.3,11.6h-8.5L-189.5-755.8z"/>
	<path id="Polygon_5" class="st4" d="M-282.4-755.8l4.3,11.6h-8.5L-282.4-755.8z"/>
</g>
<g id="trees" transform="translate(731.154 1072.222)">
	<circle id="Ellipse_166" class="st4" cx="-740.5" cy="-412.4" r="20.5"/>
	<circle id="Ellipse_167" class="st4" cx="-672.4" cy="-424" r="20.5"/>
	<circle id="Ellipse_243" class="st4" cx="-491.2" cy="-400.8" r="20.5"/>
	<circle id="Ellipse_280" class="st4" cx="-172.2" cy="-414.7" r="20.5"/>
	<circle id="Ellipse_202" class="st4" cx="-585.7" cy="-424.8" r="20.5"/>
	<circle id="Ellipse_244" class="st4" cx="-404.5" cy="-401.6" r="20.5"/>
	<circle id="Ellipse_281" class="st4" cx="-85.5" cy="-415.5" r="20.5"/>
	<circle id="Ellipse_214" class="st4" cx="-485" cy="-391.5" r="34.5"/>
	<circle id="Ellipse_253" class="st4" cx="-303.8" cy="-368.3" r="34.5"/>
	<circle id="Ellipse_169" class="st4" cx="-698.7" cy="-410.1" r="20.5"/>
	<circle id="Ellipse_170" class="st4" cx="-618.2" cy="-424.8" r="20.5"/>
	<circle id="Ellipse_245" class="st4" cx="-437" cy="-401.6" r="20.5"/>
	<circle id="Ellipse_282" class="st4" cx="-118" cy="-415.5" r="20.5"/>
	<ellipse id="Ellipse_210" class="st4" cx="-539.6" cy="-391.5" rx="34.8" ry="34.5"/>
	<ellipse id="Ellipse_254" class="st4" cx="-358.4" cy="-368.3" rx="34.8" ry="34.5"/>
	<ellipse id="Ellipse_291" class="st4" cx="-39.4" cy="-382.2" rx="34.8" ry="34.5"/>
	<circle id="Ellipse_171" class="st4" cx="-698.7" cy="-442.6" r="20.5"/>
	<circle id="Ellipse_172" class="st4" cx="-618.2" cy="-457.3" r="20.5"/>
	<circle id="Ellipse_225" class="st4" cx="-437" cy="-434.1" r="20.5"/>
	<circle id="Ellipse_262" class="st4" cx="-118" cy="-448" r="20.5"/>
	<ellipse id="Ellipse_211" class="st4" cx="-539.6" cy="-446.5" rx="34.8" ry="34.5"/>
	<ellipse id="Ellipse_226" class="st4" cx="-358.4" cy="-423.2" rx="34.8" ry="34.5"/>
	<ellipse id="Ellipse_263" class="st4" cx="-39.4" cy="-437.2" rx="34.8" ry="34.5"/>
	<circle id="Ellipse_173" class="st4" cx="-732" cy="-427.9" r="20.5"/>
	<circle id="Ellipse_174" class="st4" cx="-651.5" cy="-442.6" r="20.5"/>
	<circle id="Ellipse_227" class="st4" cx="-470.3" cy="-419.4" r="20.5"/>
	<circle id="Ellipse_264" class="st4" cx="-151.3" cy="-433.3" r="20.5"/>
	<circle id="Ellipse_196" class="st4" cx="-595.7" cy="-421.7" r="34.5"/>
	<circle id="Ellipse_246" class="st4" cx="-414.6" cy="-398.5" r="34.5"/>
	<circle id="Ellipse_283" class="st4" cx="-95.6" cy="-412.4" r="34.5"/>
	<circle id="Ellipse_175" class="st4" cx="-672.8" cy="-448.4" r="13.9"/>
	<circle id="Ellipse_203" class="st4" cx="-592.2" cy="-463.1" r="13.9"/>
	<circle id="Ellipse_228" class="st4" cx="-411.1" cy="-439.9" r="13.9"/>
	<circle id="Ellipse_265" class="st4" cx="-92.1" cy="-453.8" r="13.9"/>
	<ellipse id="Ellipse_215" class="st4" cx="-495.8" cy="-456.1" rx="23.6" ry="23.2"/>
	<ellipse id="Ellipse_229" class="st4" cx="-314.7" cy="-432.9" rx="23.6" ry="23.2"/>
	<circle id="Ellipse_176" class="st4" cx="-720" cy="-430.6" r="13.9"/>
	<circle id="Ellipse_177" class="st4" cx="-651.9" cy="-442.2" r="13.9"/>
	<circle id="Ellipse_247" class="st4" cx="-470.7" cy="-419" r="13.9"/>
	<circle id="Ellipse_284" class="st4" cx="-151.7" cy="-432.9" r="13.9"/>
	<circle id="Ellipse_178" class="st4" cx="-647.2" cy="-451.5" r="13.9"/>
	<circle id="Ellipse_230" class="st4" cx="-466" cy="-428.3" r="13.9"/>
	<circle id="Ellipse_267" class="st4" cx="-147.1" cy="-442.2" r="13.9"/>
	<ellipse id="Ellipse_220" class="st4" cx="-450.2" cy="-422.1" rx="23.6" ry="23.2"/>
	<ellipse id="Ellipse_255" class="st4" cx="-280.6" cy="-390.3" rx="23.6" ry="23.2"/>
	<circle id="Ellipse_159" class="st4" cx="-717.7" cy="-444.5" r="13.9"/>
	<circle id="Ellipse_179" class="st4" cx="-637.1" cy="-459.2" r="13.9"/>
	<circle id="Ellipse_231" class="st4" cx="-456" cy="-436" r="13.9"/>
	<circle id="Ellipse_268" class="st4" cx="-137" cy="-449.9" r="13.9"/>
	<circle id="Ellipse_206" class="st4" cx="-571.7" cy="-449.6" r="23.6"/>
	<circle id="Ellipse_232" class="st4" cx="-390.5" cy="-426.3" r="23.6"/>
	<circle id="Ellipse_269" class="st4" cx="-71.6" cy="-440.3" r="23.6"/>
	<circle id="Ellipse_181" class="st4" cx="-725.4" cy="-407.4" r="13.9"/>
	<circle id="Ellipse_182" class="st4" cx="-644.9" cy="-422.1" r="13.9"/>
	<circle id="Ellipse_256" class="st4" cx="-463.7" cy="-398.8" r="13.9"/>
	<circle id="Ellipse_293" class="st4" cx="-144.7" cy="-412.8" r="13.9"/>
	<ellipse id="Ellipse_200" class="st4" cx="-584.5" cy="-386.8" rx="23.2" ry="23.6"/>
	<ellipse id="Ellipse_258" class="st4" cx="-403.3" cy="-363.6" rx="23.2" ry="23.6"/>
	<ellipse id="Ellipse_295" class="st4" cx="-84.3" cy="-377.6" rx="23.2" ry="23.6"/>
	<circle id="Ellipse_160" class="st4" cx="-740.1" cy="-436.8" r="13.9"/>
	<circle id="Ellipse_183" class="st4" cx="-665.8" cy="-434.5" r="13.9"/>
	<circle id="Ellipse_204" class="st4" cx="-585.3" cy="-449.2" r="13.9"/>
	<circle id="Ellipse_233" class="st4" cx="-404.1" cy="-425.9" r="13.9"/>
	<circle id="Ellipse_270" class="st4" cx="-85.1" cy="-439.9" r="13.9"/>
	<circle id="Ellipse_217" class="st4" cx="-484.2" cy="-432.5" r="23.6"/>
	<circle id="Ellipse_248" class="st4" cx="-303.1" cy="-409.3" r="23.6"/>
	<circle id="Ellipse_184" class="st4" cx="-688.2" cy="-463.1" r="7"/>
	<circle id="Ellipse_199" class="st4" cx="-607.7" cy="-477.8" r="7"/>
	<circle id="Ellipse_222" class="st4" cx="-426.6" cy="-454.6" r="7"/>
	<circle id="Ellipse_259" class="st4" cx="-107.6" cy="-468.5" r="7"/>
	<circle id="Ellipse_213" class="st4" cx="-521.8" cy="-480.9" r="11.6"/>
	<circle id="Ellipse_234" class="st4" cx="-340.6" cy="-457.7" r="11.6"/>
	<circle id="Ellipse_185" class="st4" cx="-705.3" cy="-460.8" r="7"/>
	<circle id="Ellipse_197" class="st4" cx="-624.8" cy="-475.5" r="7"/>
	<circle id="Ellipse_235" class="st4" cx="-443.6" cy="-452.3" r="7"/>
	<circle id="Ellipse_272" class="st4" cx="-124.6" cy="-466.2" r="7"/>
	<circle id="Ellipse_212" class="st4" cx="-550.4" cy="-477" r="11.6"/>
	<circle id="Ellipse_223" class="st4" cx="-369.3" cy="-453.8" r="11.6"/>
	<circle id="Ellipse_186" class="st4" cx="-654.9" cy="-445.3" r="7"/>
	<circle id="Ellipse_198" class="st4" cx="-612" cy="-449.6" r="12"/>
	<circle id="Ellipse_236" class="st4" cx="-430.8" cy="-426.3" r="12"/>
	<circle id="Ellipse_273" class="st4" cx="-111.8" cy="-440.3" r="12"/>
	<circle id="Ellipse_188" class="st4" cx="-677.8" cy="-430.2" r="12"/>
	<circle id="Ellipse_201" class="st4" cx="-597.3" cy="-444.9" r="12"/>
	<circle id="Ellipse_249" class="st4" cx="-416.1" cy="-421.7" r="12"/>
	<circle id="Ellipse_286" class="st4" cx="-97.1" cy="-435.6" r="12"/>
	<ellipse id="Ellipse_216" class="st4" cx="-504.4" cy="-425.2" rx="20.5" ry="20.1"/>
	<ellipse id="Ellipse_250" class="st4" cx="-323.2" cy="-401.9" rx="20.5" ry="20.1"/>
	<circle id="Ellipse_163" class="st4" cx="-729.7" cy="-454.2" r="7.4"/>
	<circle id="Ellipse_189" class="st4" cx="-655.3" cy="-451.9" r="7.4"/>
	<circle id="Ellipse_209" class="st4" cx="-574.8" cy="-466.6" r="7.4"/>
	<circle id="Ellipse_237" class="st4" cx="-393.6" cy="-443.4" r="7.4"/>
	<circle id="Ellipse_274" class="st4" cx="-74.7" cy="-457.3" r="7.4"/>
	<circle id="Ellipse_219" class="st4" cx="-466.8" cy="-461.6" r="12.4"/>
	<circle id="Ellipse_257" class="st4" cx="-285.6" cy="-438.3" r="12.4"/>
	<circle id="Ellipse_190" class="st4" cx="-665.4" cy="-461.9" r="7.4"/>
	<circle id="Ellipse_207" class="st4" cx="-584.9" cy="-476.7" r="7.4"/>
	<circle id="Ellipse_224" class="st4" cx="-403.7" cy="-453.4" r="7.4"/>
	<circle id="Ellipse_261" class="st4" cx="-84.7" cy="-467.4" r="7.4"/>
	<circle id="Ellipse_218" class="st4" cx="-483.1" cy="-478.6" r="12.4"/>
	<circle id="Ellipse_251" class="st4" cx="-301.9" cy="-455.4" r="12.4"/>
	<circle id="Ellipse_191" class="st4" cx="-705.7" cy="-432.5" r="7.4"/>
	<circle id="Ellipse_192" class="st4" cx="-637.5" cy="-444.1" r="7.4"/>
	<circle id="Ellipse_252" class="st4" cx="-456.4" cy="-420.9" r="7.4"/>
	<circle id="Ellipse_289" class="st4" cx="-137.4" cy="-434.8" r="7.4"/>
	<circle id="Ellipse_193" class="st4" cx="-632.9" cy="-453.4" r="7.4"/>
	<circle id="Ellipse_238" class="st4" cx="-451.7" cy="-430.2" r="7.4"/>
	<circle id="Ellipse_275" class="st4" cx="-132.7" cy="-444.1" r="7.4"/>
	<circle id="Ellipse_221" class="st4" cx="-411.1" cy="-381.8" r="12.4"/>
	<circle id="Ellipse_164" class="st4" cx="-719.6" cy="-451.1" r="7.4"/>
	<circle id="Ellipse_194" class="st4" cx="-639.1" cy="-465.8" r="7.4"/>
	<circle id="Ellipse_239" class="st4" cx="-457.9" cy="-442.6" r="7.4"/>
	<circle id="Ellipse_276" class="st4" cx="-138.9" cy="-456.5" r="7.4"/>
	<circle id="Ellipse_208" class="st4" cx="-574.4" cy="-460.8" r="12.4"/>
	<circle id="Ellipse_240" class="st4" cx="-393.3" cy="-437.6" r="12.4"/>
	<circle id="Ellipse_277" class="st4" cx="-74.3" cy="-451.5" r="12.4"/>
	<circle id="Ellipse_165" class="st4" cx="-725" cy="-453.4" r="7.4"/>
	<circle id="Ellipse_195" class="st4" cx="-644.5" cy="-468.1" r="7.4"/>
	<circle id="Ellipse_241" class="st4" cx="-463.3" cy="-444.9" r="7.4"/>
	<circle id="Ellipse_278" class="st4" cx="-144.3" cy="-458.8" r="7.4"/>
	<circle id="Ellipse_205" class="st4" cx="-583.7" cy="-464.7" r="12.4"/>
	<circle id="Ellipse_242" class="st4" cx="-402.5" cy="-441.4" r="12.4"/>
	<circle id="Ellipse_279" class="st4" cx="-83.6" cy="-455.4" r="12.4"/>
</g>
</svg>
