<?xml version="1.0" encoding="utf-8"?>
<!-- Generator: Adobe Illustrator 24.2.1, SVG Export Plug-In . SVG Version: 6.00 Build 0)  -->
<svg version="1.1" id="Layer_1" xmlns="http://www.w3.org/2000/svg" xmlns:xlink="http://www.w3.org/1999/xlink" x="0px" y="0px"
	 viewBox="0 0 79 78" style="enable-background:new 0 0 79 78;" xml:space="preserve">
<style type="text/css">
	.st0{fill-rule:evenodd;clip-rule:evenodd;}
</style>
<path id="Path_40" class="st0" d="M39.2,8.3c5-0.2,10.1,0,15.1,0.4c2.4,0,4.8,0.4,7.1,1.3c3.1,1.5,5.7,4,7.1,7.1
	c0.9,2.3,1.3,4.7,1.3,7.1c0,3.8,0.4,5,0.4,15.1c0.2,5,0,10.1-0.4,15.1c0,2.4-0.4,4.8-1.3,7.1c-1.5,3.1-4,5.7-7.1,7.1
	c-2.3,0.9-4.7,1.3-7.1,1.3c-3.8,0-5,0.4-15.1,0.4c-5,0.2-10.1,0-15.1-0.4c-2.4,0-4.8-0.4-7.1-1.3c-3.1-1.5-5.7-4-7.1-7.1
	c-0.9-2.3-1.3-4.7-1.3-7.1c0-3.8-0.4-5-0.4-15.1c-0.2-5,0-10.1,0.4-15.1c0-2.4,0.4-4.8,1.3-7.1c0.7-1.6,1.7-3,2.9-4.2
	c1-1.5,2.5-2.5,4.2-2.9c2.3-0.9,4.7-1.3,7.1-1.3C29.2,8.3,34.2,8.1,39.2,8.3 M39.2,1.6C34,1.4,28.9,1.6,23.7,2
	c-3.1,0-6.3,0.6-9.2,1.7C12,4.5,9.7,6,7.8,7.9C5.9,9.7,4.4,12,3.6,14.6c-1.3,2.9-1.9,6.1-1.7,9.2C1.5,29,1.3,34.1,1.5,39.3
	c-0.2,5.2,0,10.3,0.4,15.5c0,3.1,0.6,6.3,1.7,9.2c0.8,2.5,2.3,4.8,4.2,6.7c1.9,1.9,4.2,3.4,6.7,4.2c2.9,1.1,6.1,1.7,9.2,1.7
	c5.2,0.5,10.3,0.6,15.5,0.4c5.2,0.2,10.3,0,15.5-0.4c3.1,0,6.3-0.6,9.2-1.7c5.1-1.8,9.1-5.8,10.9-10.9c1.1-2.9,1.7-6.1,1.7-9.2
	c0-4.2,0.4-5.4,0.4-15.5c0.2-5.2,0-10.3-0.4-15.5c0-3.1-0.6-6.3-1.7-9.2C74,12,72.6,9.7,70.6,7.9c-1.9-1.9-4.2-3.4-6.7-4.2
	C61,2.6,57.9,2,54.7,2C49.6,1.6,44.4,1.4,39.2,1.6 M39.2,20C28.8,19.9,20.1,28.2,20,38.7c0,0.2,0,0.4,0,0.6
	c0,10.6,8.6,19.3,19.3,19.3s19.3-8.6,19.3-19.3S49.9,20,39.2,20 M39.2,51.9c-6.8,0.1-12.4-5.3-12.6-12.1c0-0.1,0-0.3,0-0.4
	c-0.1-6.8,5.3-12.4,12.1-12.6c0.1,0,0.3,0,0.4,0c6.8-0.1,12.4,5.3,12.6,12.1c0,0.1,0,0.3,0,0.4c0.1,6.8-5.3,12.4-12.1,12.6
	C39.5,51.9,39.4,51.9,39.2,51.9 M59.3,14.6c-2.5,0-4.6,2.1-4.6,4.6s2.1,4.6,4.6,4.6s4.6-2.1,4.6-4.6c0,0,0,0,0,0
	C63.9,16.7,61.9,14.6,59.3,14.6"/>
</svg>
