<?xml version="1.0" encoding="utf-8"?>
<!-- Generator: Adobe Illustrator 24.2.1, SVG Export Plug-In . SVG Version: 6.00 Build 0)  -->
<svg version="1.1" id="Layer_1" xmlns="http://www.w3.org/2000/svg" xmlns:xlink="http://www.w3.org/1999/xlink" x="0px" y="0px"
	 viewBox="0 0 301 192" style="enable-background:new 0 0 301 192;" xml:space="preserve">
<style type="text/css">
	.st0{fill:url(#SVGID_1_);}
	.st1{fill:url(#SVGID_2_);}
	.st2{fill:#69C1ED;}
	.st3{fill:#B5E5F7;}
	.st4{fill:#FFFFFF;}
	.st5{font-family:'AcierBATText-Solid';}
	.st6{font-size:78.0098px;}
</style>
<g>
	<linearGradient id="SVGID_1_" gradientUnits="userSpaceOnUse" x1="3.7709" y1="171.534" x2="296.6114" y2="171.534">
		<stop  offset="0" style="stop-color:#FFFFFF"/>
		<stop  offset="0.9985" style="stop-color:#B5E5F7"/>
	</linearGradient>
	<path class="st0" d="M292.9,188L7.6,188c-4.5,0-5-8-1.4-10.1l35.8-22.1c0.8-0.5,1.9-0.8,3-0.8h209.8c1.4,0,2.8,0.3,3.9,1l35.5,22.1
		C297.7,180.2,297.6,188,292.9,188z"/>
	<linearGradient id="SVGID_2_" gradientUnits="userSpaceOnUse" x1="43.2108" y1="75.0121" x2="256.8203" y2="75.0121">
		<stop  offset="0" style="stop-color:#FFFFFF"/>
		<stop  offset="0.9985" style="stop-color:#B5E5F7"/>
	</linearGradient>
	<path class="st1" d="M251.6,4.1H48.5c-2.9,0-5.2,2.4-5.2,5.3v131.4c0,2.9,2.4,5.3,5.2,5.3h203.1c2.9,0,5.2-2.4,5.2-5.3V9.3
		C256.8,6.4,254.5,4.1,251.6,4.1z"/>
	<path class="st2" d="M252.2,11.5v127c0,1.4-1.1,2.5-2.5,2.5H50.4c-1.4,0-2.5-1.1-2.5-2.5v-127c0-1.4,1.1-2.5,2.5-2.5h199.2
		C251,9,252.2,10.1,252.2,11.5z"/>
	<path class="st3" d="M292.9,182.8l-285.4,0c-4.5,0-4.1-3.4-0.5-5.4l34.9-26.8c0.8-0.5,1.9-0.8,3-0.8h209.8c1.4,0,2.8,0.3,3.9,1
		l34.4,26.5C296.7,179.3,297.6,182.8,292.9,182.8z"/>
	<rect x="95.9" y="52.9" class="st4" width="10.5" height="49.2"/>
	<polygon class="st3" points="130.5,52.9 110.1,85 106.4,78 106.4,75.3 118.9,52.9 	"/>
	<polygon class="st3" points="131,102.1 112,70 106.4,75.3 106.4,78 119.4,102.1 	"/>
	<rect x="174.4" y="55.9" class="st4" width="10.5" height="46"/>
	<rect x="198.5" y="55.6" class="st4" width="10.5" height="46"/>
	
		<rect x="185.6" y="41.5" transform="matrix(-1.836970e-16 1 -1 -1.836970e-16 250.5295 -132.8781)" class="st3" width="12.2" height="34.6"/>
	<path class="st3" d="M167.4,77.5c0,2.1-0.2,4.2-0.5,6.1h-33.6c-0.4-2-0.5-4-0.5-6.1c0-2.1,0.2-4.1,0.5-6.1h33.6
		C167.2,73.4,167.4,75.4,167.4,77.5z"/>
	<path class="st4" d="M166.8,71.4c-1.9-10.6-8.7-18.5-16.8-18.5c-8.1,0-14.9,7.9-16.8,18.5c-0.4,2-0.5,4-0.5,6.1
		c0,2.1,0.2,4.2,0.5,6.1c1.9,10.6,8.7,18.5,16.8,18.5c8.1,0,14.9-7.9,16.8-18.5c0.4-2,0.5-4,0.5-6.1
		C167.4,75.4,167.2,73.4,166.8,71.4z M150.1,91.8c-3.9,0-7.3-3.3-8.9-8.1c-0.6-1.9-0.9-3.9-0.9-6.1c0-2.2,0.3-4.2,0.9-6.1
		c1.6-4.8,5-8.1,8.9-8.1s7.3,3.3,8.9,8.1c0.6,1.9,0.9,3.9,0.9,6.1c0,2.2-0.3,4.3-0.9,6.1C157.3,88.4,154,91.8,150.1,91.8z"/>
	<text transform="matrix(0.8608 0 0 1 53.2051 99.2148)" class="st4 st5 st6">&lt;</text>
	<text transform="matrix(0.8608 0 0 1 214.5527 99.6553)" class="st4 st5 st6">&gt;</text>
</g>
</svg>
