<?xml version="1.0" encoding="utf-8"?>
<!-- Generator: Adobe Illustrator 24.2.1, SVG Export Plug-In . SVG Version: 6.00 Build 0)  -->
<svg version="1.1" id="Layer_1" xmlns="http://www.w3.org/2000/svg" xmlns:xlink="http://www.w3.org/1999/xlink" x="0px" y="0px"
	 viewBox="0 0 92 75" style="enable-background:new 0 0 92 75;" xml:space="preserve">
<style type="text/css">
	.st0{fill-rule:evenodd;clip-rule:evenodd;}
</style>
<g id="Social" transform="translate(-1274 -816)">
	<path id="Path_39" class="st0" d="M1303.4,891c34.7,0,53.6-28.6,53.6-53.6v-2.6c3.6-2.7,6.7-6,9.2-9.7c-3.4,1.5-7,2.5-10.7,3.1
		c3.8-2.4,6.7-6,8.2-10.2c-3.7,2.1-7.6,3.6-11.7,4.6c-3.5-3.9-8.5-6.2-13.8-6.1c-10.4,0.2-18.7,8.5-18.9,18.9
		c-0.1,1.4,0.1,2.8,0.5,4.1c-15.2-0.7-29.4-8-38.8-19.9c-1.7,3-2.6,6.3-2.6,9.7c0.1,6.3,3.1,12.1,8.2,15.8c-3.1-0.1-6.1-0.9-8.7-2.6
		l0,0c0,9,6.4,16.8,15.3,18.4c-1.7,0.4-3.4,0.6-5.1,0.5c-1.2,0.1-2.4-0.1-3.6-0.5c2.6,7.8,9.7,13.1,17.9,13.3
		c-6.7,5.2-15,8.1-23.5,8.2c-1.5,0.1-3.1-0.1-4.6-0.5C1282.7,887.9,1292.9,891.1,1303.4,891"/>
</g>
</svg>
